<svg width="32" height="32" viewBox="0 0 32 32" fill="none" xmlns="http://www.w3.org/2000/svg">
<g clip-path="url(#clip0_344_124)">
<rect width="32" height="32" rx="10" fill="white"/>
<rect width="32" height="32" fill="#B168A4"/>
<path d="M14.8182 6.5H18.5C20.2273 6.5 21.7614 6.88636 23.1023 7.65909C24.4432 8.43182 25.4962 9.50758 26.2614 10.8864C27.0265 12.2652 27.4091 13.8636 27.4091 15.6818C27.4091 17.5 27.0265 19.1023 26.2614 20.4886C25.4962 21.875 24.4432 22.9583 23.1023 23.7386C21.7614 24.5189 20.2273 24.9091 18.5 24.9091H14.8182C13.0909 24.9091 11.5568 24.5227 10.2159 23.75C8.875 22.9773 7.82197 21.9015 7.05682 20.5227C6.29167 19.1439 5.90909 17.5455 5.90909 15.7273C5.90909 13.9091 6.29167 12.3068 7.05682 10.9205C7.82197 9.53409 8.875 8.45076 10.2159 7.67045C11.5568 6.89015 13.0909 6.5 14.8182 6.5ZM14.8182 9C13.5 9 12.3864 9.27651 11.4773 9.82954C10.5758 10.3826 9.89015 11.1629 9.42045 12.1705C8.95833 13.178 8.72727 14.3636 8.72727 15.7273C8.72727 17.0758 8.95833 18.25 9.42045 19.25C9.89015 20.25 10.5758 21.0265 11.4773 21.5795C12.3864 22.1326 13.5 22.4091 14.8182 22.4091H18.5C19.8182 22.4091 20.928 22.1326 21.8295 21.5795C22.7386 21.0265 23.4242 20.2462 23.8864 19.2386C24.3561 18.2311 24.5909 17.0455 24.5909 15.6818C24.5909 14.3333 24.3561 13.1591 23.8864 12.1591C23.4242 11.1591 22.7386 10.3826 21.8295 9.82954C20.928 9.27651 19.8182 9 18.5 9H14.8182ZM18.0909 3.31818V27.9545H15.2727V3.31818H18.0909Z" fill="white"/>
</g>
<defs>
<clipPath id="clip0_344_124">
<rect width="32" height="32" rx="10" fill="white"/>
</clipPath>
</defs>
</svg>
